<?xml version="1.0" standalone="no"?>
<svg xmlns="http://www.w3.org/2000/svg" viewBox="0 0 154.176 36" width="154.176" height="36"><g fill="#36a38f" color="#36a38f" transform="translate(0 3.9999999999999982) scale(0.2800001)"><svg width="100.0" height="100.0" x="0.0" y="0.0" viewBox="0 0 100 100"><g><path d="M9.707,88.562h17.127c2.595,0,4.706-2.111,4.706-4.707v-0.026l16.391,5.428c2.447,0.811,4.969,1.213,7.484,1.213   c3.503,0,6.991-0.781,10.241-2.331l25.632-12.537c1.589-0.777,2.78-2.126,3.354-3.8s0.461-3.469-0.317-5.059   c-1.603-3.271-5.569-4.638-8.848-3.038L70.833,70.85c-0.722-2.991-3.414-5.222-6.623-5.222H53.966l-3.62-1.931   c-3.436-1.832-7.308-2.8-11.199-2.8H31.54v-0.115c0-2.595-2.111-4.707-4.706-4.707H9.707C7.111,56.076,5,58.187,5,60.782v23.073   C5,86.451,7.111,88.562,9.707,88.562z M39.147,64.897c3.237,0,6.459,0.806,9.316,2.329l4.065,2.168   c0.024,0.013,0.049,0.017,0.074,0.028c0.088,0.043,0.18,0.076,0.275,0.106c0.053,0.017,0.105,0.037,0.159,0.049   c0.094,0.021,0.191,0.028,0.29,0.035c0.047,0.003,0.095,0.017,0.142,0.017c0.007,0,0.014-0.003,0.022-0.003H64.21   c1.555,0,2.82,1.265,2.82,2.828c0,1.555-1.266,2.82-2.82,2.82H49.209c-1.104,0-2,0.896-2,2s0.896,2,2,2H64.21   c2.635,0,4.92-1.504,6.056-3.699l16.965-8.276c1.296-0.632,2.867-0.093,3.502,1.202c0.308,0.629,0.352,1.34,0.125,2.002   c-0.227,0.662-0.698,1.196-1.327,1.504L63.916,84.537c-4.627,2.208-9.857,2.536-14.728,0.923L31.54,79.616V64.897H39.147z    M9,60.782c0-0.39,0.317-0.707,0.707-0.707h17.127c0.39,0,0.706,0.317,0.706,0.707v23.073c0,0.39-0.316,0.707-0.706,0.707H9.707   C9.317,84.562,9,84.245,9,83.855V60.782z"></path><path d="M30.447,39.506c0.463,0,0.928-0.16,1.306-0.486l2.689-2.321v20.82c0,1.104,0.896,2,2,2s2-0.896,2-2V33.247l22.097-19.068   l22.107,19.074V60.52c0,1.104,0.896,2,2,2s2-0.896,2-2V36.704l2.685,2.316c0.837,0.722,2.099,0.629,2.82-0.208   c0.722-0.836,0.629-2.099-0.207-2.821l-7.813-6.741V14.662c0-1.104-0.896-2-2-2h-7.476c-1.104,0-2,0.896-2,2v4.688l-10.81-9.326   c-0.752-0.648-1.863-0.647-2.613,0L29.14,35.993c-0.836,0.722-0.929,1.984-0.207,2.821C29.328,39.271,29.886,39.506,30.447,39.506z    M76.655,16.662h3.476v9.136l-3.476-2.999V16.662z"></path><path d="M58.542,34.208v1.427c-2.624,0.75-4.528,2.933-4.528,5.505c0,3.189,2.929,5.785,6.528,5.785   c1.37,0,2.528,0.817,2.528,1.785s-1.158,1.785-2.528,1.785c-1.27,0-2.191-0.678-2.446-1.347c-0.394-1.034-1.551-1.551-2.581-1.158   c-1.032,0.393-1.55,1.548-1.157,2.581c0.673,1.768,2.249,3.097,4.185,3.646v1.425c0,1.104,0.896,2,2,2s2-0.896,2-2v-1.427   c2.624-0.75,4.528-2.933,4.528-5.504c0-3.189-2.929-5.785-6.528-5.785c-1.37,0-2.528-0.817-2.528-1.785   c0-0.968,1.158-1.785,2.528-1.785c1.369,0,2.305,0.764,2.489,1.483c0.275,1.069,1.359,1.716,2.436,1.439   c1.069-0.275,1.714-1.365,1.439-2.435c-0.525-2.042-2.212-3.596-4.364-4.203v-1.432c0-1.104-0.896-2-2-2   S58.542,33.104,58.542,34.208z"></path><path d="M41.117,44.925c0,10.71,8.714,19.424,19.425,19.424s19.425-8.714,19.425-19.424c0-10.711-8.714-19.425-19.425-19.425   S41.117,34.214,41.117,44.925z M75.967,44.925c0,8.505-6.92,15.424-15.425,15.424S45.117,53.43,45.117,44.925   c0-8.505,6.92-15.425,15.425-15.425S75.967,36.419,75.967,44.925z"></path></g></svg></g><path fill="#36a38f" fill-rule="nonzero" d="M0 17.40L0 0.89L13.34 0.89L13.34 4.85L5.30 4.85L5.30 7.68L12.22 7.68L12.22 11.47L5.30 11.47L5.30 17.40L0 17.40ZM20.62 3.24L15.84 3.24L15.84 0L20.62 0L20.62 3.24ZM20.62 17.40L15.84 17.40L15.84 4.73L20.62 4.73L20.62 17.40ZM32.40 4.44Q34.61 4.44 35.71 5.66Q36.82 6.89 36.82 9.19L36.82 9.19L36.82 17.40L32.04 17.40L32.04 9.77Q32.04 8.95 31.62 8.46Q31.20 7.97 30.43 7.97L30.43 7.97Q29.54 7.97 28.99 8.54Q28.44 9.12 28.44 9.96L28.44 9.96L28.44 17.40L23.66 17.40L23.66 4.73L27.58 4.73L27.89 6.65Q28.63 5.64 29.84 5.04Q31.06 4.44 32.40 4.44L32.40 4.44ZM52.78 17.40L48.89 17.40L48.48 15.60Q47.09 17.69 44.45 17.69L44.45 17.69Q41.88 17.69 40.49 16.01Q39.10 14.33 39.10 11.04L39.10 11.04Q39.10 7.78 40.49 6.11Q41.88 4.44 44.45 4.44L44.45 4.44Q46.63 4.44 48 5.90L48 5.90L48 0L52.78 0L52.78 17.40ZM45.94 7.97Q43.87 7.97 43.87 10.44L43.87 10.44L43.87 11.71Q43.87 14.16 45.94 14.16L45.94 14.16Q46.99 14.16 47.52 13.42Q48.05 12.67 48.05 11.47L48.05 11.47L48.05 10.68Q48.05 9.48 47.52 8.72Q46.99 7.97 45.94 7.97L45.94 7.97ZM64.01 17.40L64.01 0.89L77.35 0.89L77.35 4.85L69.31 4.85L69.31 7.68L76.22 7.68L76.22 11.47L69.31 11.47L69.31 17.40L64.01 17.40ZM85.32 4.44Q88.22 4.44 90.05 5.41Q91.87 6.38 91.87 8.57L91.87 8.57L91.87 13.51Q91.87 13.92 92.06 14.18Q92.26 14.45 92.64 14.45L92.64 14.45L93.50 14.45L93.50 17.21Q93.43 17.26 93.13 17.36Q92.83 17.47 92.28 17.58Q91.73 17.69 91.01 17.69L91.01 17.69Q89.62 17.69 88.72 17.27Q87.82 16.85 87.48 16.10L87.48 16.10Q86.57 16.82 85.44 17.26Q84.31 17.69 82.80 17.69L82.80 17.69Q78.34 17.69 78.34 14.14L78.34 14.14Q78.34 12.29 79.33 11.32Q80.33 10.34 82.20 9.98Q84.07 9.62 87.10 9.62L87.10 9.62L87.10 9.00Q87.10 8.26 86.58 7.87Q86.06 7.49 85.25 7.49L85.25 7.49Q84.50 7.49 83.96 7.75Q83.42 8.02 83.42 8.59L83.42 8.59L83.42 8.69L78.72 8.69Q78.70 8.57 78.70 8.35L78.70 8.35Q78.70 6.55 80.41 5.50Q82.13 4.44 85.32 4.44L85.32 4.44ZM87.10 11.88Q85.06 11.88 84.08 12.32Q83.11 12.77 83.11 13.51L83.11 13.51Q83.11 14.71 84.74 14.71L84.74 14.71Q85.68 14.71 86.39 14.21Q87.10 13.70 87.10 12.96L87.10 12.96L87.10 11.88ZM101.09 4.44Q103.63 4.44 105.40 5.44Q107.16 6.43 107.16 8.52L107.16 8.52L102.72 8.52Q102.72 7.82 102.10 7.54L102.10 7.54Q101.66 7.30 101.02 7.30L101.02 7.30Q99.29 7.30 99.29 8.11L99.29 8.11Q99.29 8.57 99.89 8.76Q100.49 8.95 101.86 9.17L101.86 9.17Q103.54 9.41 104.66 9.73Q105.79 10.06 106.63 10.88Q107.47 11.71 107.47 13.20L107.47 13.20Q107.47 15.62 105.66 16.66Q103.85 17.69 100.92 17.69L100.92 17.69Q99.24 17.69 97.75 17.22Q96.26 16.75 95.33 15.77Q94.39 14.78 94.39 13.27L94.39 13.27L98.83 13.27L98.83 13.37Q98.86 14.18 99.52 14.51Q100.18 14.83 100.92 14.83L100.92 14.83Q102.91 14.83 102.91 13.90L102.91 13.90Q102.91 13.42 102.29 13.20Q101.66 12.98 100.25 12.74L100.25 12.74Q98.54 12.46 97.45 12.12Q96.36 11.78 95.54 10.98Q94.73 10.18 94.73 8.74L94.73 8.74Q94.73 6.41 96.49 5.42Q98.26 4.44 101.09 4.44L101.09 4.44ZM115.49 4.73L118.18 4.73L118.18 7.97L115.49 7.97L115.49 12.79Q115.49 13.66 115.78 14.05Q116.06 14.45 116.83 14.45L116.83 14.45L118.18 14.45L118.18 17.26Q117.60 17.45 116.69 17.57Q115.78 17.69 115.10 17.69L115.10 17.69Q112.99 17.69 111.85 16.92Q110.71 16.15 110.71 14.30L110.71 14.30L110.71 7.97L108.94 7.97L108.94 4.73L110.90 4.73L111.94 0.89L115.49 0.89L115.49 4.73Z" transform="translate(36, 9.3)"></path></svg>
