<?xml version="1.0" standalone="no"?>
<svg xmlns="http://www.w3.org/2000/svg" viewBox="0 0 182.801 29" width="182.801" height="29"><g fill="#00936f" color="#00936f" transform="translate(0, 0) scale(0.453125)"><svg width="64.0" height="64.0" x="0.0" y="0.0" viewBox="0 0 64 64"><path d="M36,30a8,8,0,1,0-8-8A8.009,8.009,0,0,0,36,30Zm-4-6h2v1a1,1,0,0,0,1,1V23a3,3,0,0,1-3-3V19a3,3,0,0,1,3-3V15h2v1a3,3,0,0,1,3,3v1H38V19a1,1,0,0,0-1-1v3a3,3,0,0,1,3,3v1a3,3,0,0,1-3,3v1H35V28a3,3,0,0,1-3-3Z"></path><path d="M38,25V24a1,1,0,0,0-1-1v3A1,1,0,0,0,38,25Z"></path><path d="M48.071,33A8.046,8.046,0,0,1,52,29.6V19.658L36,8.229,20,19.658V41h7V30a1,1,0,0,1,1-1h.871a10,10,0,1,1,14.258,0H44a1,1,0,0,1,1,1v3Z"></path><path d="M49.577,34.429a1,1,0,0,1-.9.571h-6.26l-1.707,1.707a1,1,0,0,1-1.414,0L37.586,35H35.414L33,37.414V39H48.675a1,1,0,0,1,.9.571,6,6,0,1,0,0-5.142ZM57,35a2,2,0,1,1-2,2A2,2,0,0,1,57,35Z"></path><path d="M34.9,49H43V41H32a1,1,0,0,1-1-1V37a1,1,0,0,1,.293-.707l3-3A1,1,0,0,1,35,33h3a1,1,0,0,1,.707.293L40,34.586l1.293-1.293A1,1,0,0,1,42,33h1V31H40.33a9.874,9.874,0,0,1-8.66,0H29V41.631l5.277,6.157A2.975,2.975,0,0,1,34.9,49Z"></path><path d="M48.07,41H45v8h7V44.406A8.06,8.06,0,0,1,48.07,41Z"></path><path d="M35,18a1,1,0,0,0-1,1v1a1,1,0,0,0,1,1Z"></path><path d="M36,6a1,1,0,0,1,.581.186l20.048,14.32,1.09-2.179L36,3.218,14.281,18.327l1.09,2.179L35.419,6.186A1,1,0,0,1,36,6Z"></path><polygon points="3 61 9 61 9 60 9 41 3 41 3 61"></polygon><path d="M58,51H35a3,3,0,0,1-3,3H30.828a2.978,2.978,0,0,1-2.121-.879l-4.414-4.414,1.414-1.414,4.414,4.414a1.009,1.009,0,0,0,.707.293H32a1,1,0,0,0,1-1V49.74a1.008,1.008,0,0,0-.24-.651L27.54,43H17V57h7a1.006,1.006,0,0,1,.555.168L30.2,60.932,61,54.2V54A3,3,0,0,0,58,51Z"></path><rect x="11" y="41" width="4" height="18"></rect><rect x="20" y="2.172" width="2" height="5.657" transform="translate(2.615 16.314) rotate(-45)"></rect><rect x="13" y="9" width="6" height="2"></rect><rect x="48.172" y="4" width="5.657" height="2" transform="translate(11.402 37.527) rotate(-45)"></rect><rect x="53" y="9" width="6" height="2"></rect></svg></g><line x1="41" y1="1" x2="41" y2="28" stroke="#1c2149" stroke-linecap="round"></line><path fill="#1c2149" fill-rule="nonzero" d="M9.93 1.16L9.93 1.16L9.70 4.61L9.62 4.63Q8.75 3.33 6.67 2.94L6.67 2.94Q6.01 2.81 5.41 2.81Q4.80 2.81 4.38 2.92Q3.95 3.02 3.64 3.22L3.64 3.22Q3 3.64 3 4.32L3 4.32Q3 5.21 3.56 5.66L3.56 5.66Q4.27 6.20 5.89 6.42Q7.52 6.63 8.51 7.01Q9.49 7.38 10.13 7.96L10.13 7.96Q11.32 9.04 11.32 11.00L11.32 11.00Q11.32 13.58 9.38 14.98L9.38 14.98Q7.71 16.17 5.18 16.17L5.18 16.17Q3.14 16.17 1.15 15.40L1.15 15.40Q0.49 15.14 0 14.80L0 14.80L0.13 10.89L0.18 10.85Q1.63 13.36 4.95 13.36L4.95 13.36Q7.30 13.36 8.06 12.22L8.06 12.22Q8.32 11.84 8.32 11.36Q8.32 10.89 8.17 10.58Q8.02 10.27 7.66 10.04L7.66 10.04Q6.98 9.60 5.38 9.45Q3.77 9.29 2.75 8.87Q1.73 8.45 1.13 7.83L1.13 7.83Q0.02 6.70 0.02 4.69L0.02 4.69Q0.02 2.60 1.49 1.31L1.49 1.31Q2.98 0 5.50 0Q8.03 0 9.93 1.16ZM16.24 15.88L12.56 3.63L15.71 3.63L17.89 12.43L20.24 3.63L22.93 3.63L25.36 12.62L27.54 3.63L30.38 3.63L26.77 15.88L23.73 15.88L21.41 7.85L19.25 15.88L16.24 15.88ZM31.61 9.86L31.61 9.86Q31.61 8.48 32.07 7.31Q32.54 6.14 33.40 5.26L33.40 5.26Q35.23 3.40 38.18 3.40L38.18 3.40Q40.68 3.40 42.19 5.05L42.19 5.05Q43.68 6.64 43.68 9.06L43.68 9.06Q43.68 9.98 43.54 10.32L43.54 10.32Q42.36 10.65 38.77 10.65L38.77 10.65L34.64 10.65Q34.95 11.91 36.06 12.60Q37.17 13.30 38.95 13.30L38.95 13.30Q40.82 13.30 42.15 12.63L42.15 12.63Q42.50 12.46 42.68 12.30L42.68 12.30Q42.66 12.80 42.62 13.31L42.62 13.31L42.49 15.14Q41.60 15.75 39.61 15.98L39.61 15.98Q39.02 16.05 38.48 16.05L38.48 16.05Q35.51 16.05 33.56 14.32L33.56 14.32Q31.61 12.57 31.61 9.86ZM40.56 8.38L40.56 8.38Q40.08 5.86 37.82 5.86L37.82 5.86Q36.04 5.86 35.11 7.39L35.11 7.39Q34.83 7.86 34.68 8.43L34.68 8.43Q34.96 8.44 35.37 8.45L35.37 8.45L36.23 8.45Q36.67 8.46 37.07 8.46L37.07 8.46L37.73 8.46Q38.33 8.46 38.91 8.45L38.91 8.45L39.87 8.41Q40.25 8.40 40.56 8.38ZM45.63 9.86L45.63 9.86Q45.63 8.48 46.10 7.31Q46.57 6.14 47.43 5.26L47.43 5.26Q49.25 3.40 52.21 3.40L52.21 3.40Q54.70 3.40 56.21 5.05L56.21 5.05Q57.70 6.64 57.70 9.06L57.70 9.06Q57.70 9.98 57.56 10.32L57.56 10.32Q56.39 10.65 52.79 10.65L52.79 10.65L48.67 10.65Q48.97 11.91 50.09 12.60Q51.20 13.30 52.98 13.30L52.98 13.30Q54.84 13.30 56.18 12.63L56.18 12.63Q56.53 12.46 56.71 12.30L56.71 12.30Q56.68 12.80 56.65 13.31L56.65 13.31L56.52 15.14Q55.63 15.75 53.64 15.98L53.64 15.98Q53.05 16.05 52.51 16.05L52.51 16.05Q49.54 16.05 47.59 14.32L47.59 14.32Q45.63 12.57 45.63 9.86ZM54.59 8.38L54.59 8.38Q54.11 5.86 51.84 5.86L51.84 5.86Q50.06 5.86 49.14 7.39L49.14 7.39Q48.86 7.86 48.70 8.43L48.70 8.43Q48.98 8.44 49.39 8.45L49.39 8.45L50.26 8.45Q50.70 8.46 51.09 8.46L51.09 8.46L51.76 8.46Q52.36 8.46 52.93 8.45L52.93 8.45L53.89 8.41Q54.28 8.40 54.59 8.38ZM65.68 13.30L65.68 13.30Q67.20 13.30 67.76 12.52L67.76 12.52L67.85 12.52L67.89 15.23Q67.31 15.81 65.75 16.00L65.75 16.00Q65.33 16.05 64.71 16.05Q64.08 16.05 63.35 15.82Q62.61 15.59 62.10 15.06L62.10 15.06Q61.03 13.97 61.03 11.65L61.03 11.65L61.03 6.33L59.26 6.33Q59.25 5.99 59.25 5.64L59.25 5.64L59.25 3.83Q59.25 3.63 59.26 3.63L59.26 3.63L61.03 3.63L61.03 0.29L63.90 0.29L63.90 3.63L67.13 3.63L67.13 6.33L63.90 6.33L63.90 11.11Q63.90 12.95 64.92 13.21L64.92 13.21Q65.25 13.30 65.68 13.30ZM73.72 9.26L73.72 15.95Q72.60 15.88 71.05 15.88L71.05 15.88L70.68 15.88L70.68 0.23Q71.40 0.29 71.71 0.29L71.71 0.29L72.19 0.29Q73.11 0.29 73.72 0.20L73.72 0.20L73.72 6.45L79.23 6.45L79.23 0.23Q80.20 0.29 81.12 0.29Q82.04 0.29 82.28 0.20L82.28 0.20L82.28 15.95Q81.71 15.88 80.05 15.88L80.05 15.88L79.23 15.88L79.23 9.26L73.72 9.26ZM85.36 9.82L85.36 9.82Q85.36 8.53 85.80 7.35Q86.24 6.18 87.06 5.30L87.06 5.30Q88.85 3.40 91.71 3.40L91.71 3.40Q94.56 3.40 96.23 5.19L96.23 5.19Q97.84 6.90 97.84 9.63L97.84 9.63Q97.84 12.36 96.19 14.16L96.19 14.16Q94.44 16.05 91.56 16.05L91.56 16.05Q88.58 16.05 86.89 14.19L86.89 14.19Q85.36 12.49 85.36 9.82ZM88.21 9.75L88.21 9.75Q88.21 10.49 88.45 11.18Q88.70 11.87 89.16 12.36L89.16 12.36Q90.13 13.43 91.71 13.43L91.71 13.43Q93.18 13.43 94.02 12.39L94.02 12.39Q94.84 11.38 94.84 9.76L94.84 9.76Q94.84 8.12 94.00 7.11L94.00 7.11Q93.09 6.04 91.52 6.04L91.52 6.04Q89.93 6.04 89.03 7.18L89.03 7.18Q88.21 8.24 88.21 9.75ZM103.44 7.64L103.44 12.49Q103.44 15.13 103.54 15.88L103.54 15.88L100.48 15.88L100.48 3.63L103.44 3.63L103.44 4.69Q105.05 3.40 106.73 3.40L106.73 3.40Q108.73 3.40 109.63 5.12L109.63 5.12Q110.53 4.20 111.13 3.90L111.13 3.90Q112.13 3.40 113.13 3.40Q114.13 3.40 114.83 3.74Q115.54 4.08 115.99 4.70L115.99 4.70Q116.92 5.95 116.92 8.14L116.92 8.14L116.92 12.81Q116.92 14.79 116.98 15.19Q117.04 15.59 117.13 15.70Q117.23 15.82 117.30 15.91L117.30 15.91L117.28 15.96Q116.34 15.88 115.90 15.88L115.90 15.88L115.02 15.88Q114.59 15.88 113.95 15.91L113.95 15.91L113.95 9.57Q113.95 6.83 113.11 6.32L113.11 6.32Q112.83 6.15 112.45 6.15Q112.07 6.15 111.77 6.24Q111.48 6.33 111.22 6.53L111.22 6.53Q110.79 6.84 110.24 7.77L110.24 7.77Q110.25 7.86 110.25 7.96Q110.25 8.05 110.25 11.05Q110.25 14.05 110.39 15.88L110.39 15.88Q109.39 15.88 108.70 15.88Q108 15.88 107.37 15.91L107.37 15.91L107.37 9.56Q107.37 7.65 107.14 7.08Q106.91 6.50 106.65 6.33Q106.39 6.15 106.02 6.15L106.02 6.15Q104.47 6.15 103.44 7.64L103.44 7.64ZM119.73 9.86L119.73 9.86Q119.73 8.48 120.20 7.31Q120.67 6.14 121.52 5.26L121.52 5.26Q123.35 3.40 126.30 3.40L126.30 3.40Q128.80 3.40 130.31 5.05L130.31 5.05Q131.80 6.64 131.80 9.06L131.80 9.06Q131.80 9.98 131.66 10.32L131.66 10.32Q130.49 10.65 126.89 10.65L126.89 10.65L122.77 10.65Q123.07 11.91 124.18 12.60Q125.30 13.30 127.08 13.30L127.08 13.30Q128.94 13.30 130.28 12.63L130.28 12.63Q130.63 12.46 130.80 12.30L130.80 12.30Q130.78 12.80 130.75 13.31L130.75 13.31L130.62 15.14Q129.73 15.75 127.73 15.98L127.73 15.98Q127.15 16.05 126.61 16.05L126.61 16.05Q123.63 16.05 121.69 14.32L121.69 14.32Q119.73 12.57 119.73 9.86ZM128.68 8.38L128.68 8.38Q128.20 5.86 125.94 5.86L125.94 5.86Q124.16 5.86 123.23 7.39L123.23 7.39Q122.95 7.86 122.80 8.43L122.80 8.43Q123.08 8.44 123.49 8.45L123.49 8.45L124.36 8.45Q124.79 8.46 125.19 8.46L125.19 8.46L125.86 8.46Q126.46 8.46 127.03 8.45L127.03 8.45L127.99 8.41Q128.38 8.40 128.68 8.38Z" transform="translate(51, 6.415)"></path></svg>